<svg width="21" height="21" viewBox="0 0 21 21" fill="none" xmlns="http://www.w3.org/2000/svg">
<g id="Frame">
<path id="Vector" d="M16.8595 15.2168C18.0469 13.7648 18.7031 11.9089 18.7031 9.98525C18.7031 5.5084 15.1901 1.86621 10.8732 1.86621C6.55225 1.86621 3.03721 5.51045 3.03721 9.99141C3.03721 10.4241 3.07617 10.8753 3.15205 11.3634H1.89697C1.58525 11.3634 1.33301 11.6484 1.33301 11.9971C1.33301 12.3457 1.5873 12.6308 1.89697 12.6308H3.46377C4.55273 15.9059 7.52227 18.1084 10.8671 18.1084C12.7271 18.1084 14.5175 17.4214 15.9223 16.1786L18.5883 18.9431C18.7113 19.0702 18.8754 19.142 19.0436 19.142C19.222 19.142 19.3819 19.0723 19.5173 18.9431C19.7695 18.6744 19.7736 18.254 19.5296 17.9895L16.8595 15.2168ZM6.27129 13.9494C6.33281 14.1196 6.47842 14.257 6.64863 14.3104C6.704 14.3329 6.75732 14.3329 6.80449 14.3329C6.90088 14.3329 6.98496 14.3083 7.06289 14.2591C7.20029 14.1873 7.29668 14.054 7.33769 13.8776L8.94551 7.88936L10.0837 12.1119C10.135 12.4093 10.3626 12.6185 10.6354 12.6185H12.7989C12.7989 12.6185 13.5926 12.6185 13.5926 11.993C13.5926 11.3675 12.7989 11.3798 12.7989 11.3675C12.7989 11.3593 12.2227 11.3593 11.0681 11.3675L9.50127 5.52891C9.4623 5.36895 9.35361 5.22539 9.21416 5.14746C9.08086 5.07363 8.93525 5.06133 8.78965 5.11465C8.60508 5.18848 8.46562 5.34639 8.4123 5.53711L6.70195 11.8884L5.70322 9.35361C5.67451 9.27158 5.6335 9.20186 5.58633 9.14033C5.40381 8.9291 5.14541 8.87988 4.94443 8.99473C4.82754 9.05625 4.7332 9.15674 4.67783 9.27979L4.25332 10.0488C4.25332 10.0324 4.25127 10.0119 4.25127 9.99551C4.25127 9.05625 4.42764 8.15801 4.77217 7.32539C5.11055 6.49688 5.58838 5.7627 6.19131 5.14951C6.79424 4.52402 7.49971 4.02979 8.29131 3.6791C9.11572 3.32021 9.9791 3.1377 10.8568 3.1377C11.7715 3.1377 12.639 3.32021 13.4429 3.6791C14.2283 4.02363 14.9317 4.51787 15.5429 5.14951C16.1458 5.775 16.6216 6.50713 16.962 7.32539C17.3045 8.16416 17.4747 9.06445 17.4747 9.99551C17.4747 10.9348 17.2983 11.833 16.9538 12.6656C16.6154 13.4941 16.1376 14.2283 15.5347 14.8415C14.9317 15.467 14.2263 15.9612 13.4347 16.3119C12.6185 16.6708 11.7592 16.8533 10.8773 16.8533C9.9627 16.8533 9.09521 16.6708 8.29131 16.3119C7.50586 15.9674 6.80244 15.4731 6.19131 14.8415C5.58838 14.216 5.1126 13.4839 4.77217 12.6656C4.68193 12.4318 4.5999 12.1939 4.52607 11.9602L5.08799 10.9368L6.27129 13.9494Z" fill="#EEEEEE"/>
</g>
</svg>
